<svg width="1157" height="900" viewBox="0 0 1157 900" fill="none" xmlns="http://www.w3.org/2000/svg">
<path d="M1146.19 700.212C1274.56 489.641 1549.21 275.669 1670.48 195.005C1635.73 70.553 1527.06 -185.333 1370.4 -213.262C1174.58 -248.174 372.54 62.2624 222.051 500.844C71.5618 939.425 552.192 1189.56 576.206 1200.62C600.219 1211.68 985.727 963.427 1146.19 700.212Z" fill="#FF7200" fill-opacity="0.25"/>
<path d="M1045.61 728.304C1127.55 560.018 1314.46 396.074 1397.66 335.138C1366.59 230.261 1275.97 12.8 1162.01 -18.0252C1019.57 -56.5567 458.364 161.537 371.686 517.77C285.008 874.003 642.673 1104.91 660.472 1115.26C678.272 1125.6 943.171 938.663 1045.61 728.304Z" fill="#FF7200" fill-opacity="0.25"/>
</svg>
